<svg width="12" height="14" viewBox="0 0 12 14" fill="none" xmlns="http://www.w3.org/2000/svg">
<path d="M6.61574 12.1357C6.61574 12.2566 6.61574 12.3472 6.61574 12.4378C6.60903 12.7802 6.3472 13.0387 6.00817 13.0421C5.66579 13.0421 5.4006 12.787 5.39389 12.4446C5.39389 12.3539 5.39389 12.2633 5.39389 12.1559C5.26969 12.2096 5.18242 12.2969 5.08507 12.364C4.88702 12.4983 4.67555 12.5318 4.45401 12.4278C4.04784 12.2398 3.96728 11.6859 4.31638 11.4073C4.6252 11.1589 4.95416 10.9307 5.2764 10.6991C5.36032 10.6386 5.39389 10.5749 5.39389 10.4708C5.39053 9.72225 5.39053 8.97035 5.39053 8.22179C5.39053 8.18151 5.39053 8.14123 5.39053 8.0741C5.26969 8.14123 5.16899 8.19494 5.07164 8.25536C4.48757 8.59439 3.90686 8.93342 3.32279 9.26909C3.23216 9.31945 3.18852 9.38322 3.1818 9.48392C3.14824 9.82631 3.10796 10.1653 3.07439 10.5077C3.06432 10.5984 3.05425 10.6923 3.02404 10.7796C2.92334 11.0683 2.63801 11.2328 2.32248 11.1791C2.05059 11.1321 1.82904 10.877 1.82904 10.5916C1.82904 10.4372 1.85254 10.2862 1.86597 10.1116C1.7854 10.1586 1.71827 10.1989 1.65113 10.2358C1.33224 10.4171 0.963004 10.3298 0.785097 10.0344C0.603834 9.73232 0.704536 9.37651 1.01671 9.17511C1.08049 9.13482 1.20469 9.11469 1.19798 9.04419C1.19126 8.96363 1.06371 8.97035 0.993215 8.92671C0.966361 8.90992 0.932794 8.89985 0.902583 8.88643C0.56691 8.73873 0.425927 8.38627 0.56691 8.06403C0.707893 7.74178 1.06035 7.60751 1.39938 7.75185C1.76191 7.90962 2.12108 8.06738 2.47689 8.23186C2.54402 8.26207 2.59773 8.26207 2.66487 8.22179C3.3295 7.83577 3.99749 7.44975 4.66548 7.06708C4.74604 7.02008 4.74604 6.98652 4.66548 6.93952C4.00085 6.55685 3.33957 6.17083 2.67829 5.78481C2.60109 5.74117 2.53731 5.7546 2.46682 5.78481C2.10765 5.94593 1.74848 6.1037 1.38595 6.25811C0.993215 6.42259 0.58705 6.19768 0.509845 5.78145C0.466208 5.53976 0.607191 5.26787 0.842162 5.14703C0.942864 5.09668 1.04692 5.05304 1.15098 5.0094C1.2114 4.98255 1.22819 4.95905 1.16105 4.92213C1.10063 4.88856 1.03685 4.85163 0.976431 4.81135C0.684395 4.62002 0.59712 4.25414 0.775027 3.96546C0.949577 3.68014 1.3121 3.5895 1.61085 3.75398C1.62764 3.76405 1.64778 3.77748 1.66456 3.78419C1.72163 3.80769 1.78205 3.88825 1.82904 3.85468C1.88611 3.8144 1.85254 3.72377 1.83911 3.65664C1.79883 3.40824 1.81561 3.17663 2.0103 2.992C2.18485 2.82081 2.39969 2.78053 2.62794 2.85438C2.86627 2.92823 3.00725 3.10278 3.04082 3.34446C3.09453 3.73049 3.13145 4.11651 3.16838 4.50253C3.17845 4.61331 3.21537 4.6838 3.31607 4.74086C3.9505 5.10003 4.5782 5.46592 5.20927 5.8318C5.26298 5.86201 5.31669 5.89222 5.37039 5.91908C5.4006 5.87208 5.39053 5.83516 5.39053 5.79823C5.39053 5.03961 5.39053 4.28099 5.39389 3.52573C5.39389 3.43174 5.36704 3.37132 5.28983 3.31761C4.98437 3.10278 4.68562 2.88123 4.38351 2.65969C4.07805 2.43814 4.0042 2.0689 4.21232 1.78022C4.41708 1.49155 4.79639 1.44119 5.10186 1.65938C5.18913 1.72316 5.2764 1.78694 5.39053 1.8675C5.39053 1.75673 5.39053 1.67281 5.39053 1.58553C5.39725 1.22301 5.65236 0.961182 6.00817 0.961182C6.36063 0.961182 6.61574 1.22301 6.6191 1.58889C6.6191 1.67281 6.6191 1.75337 6.6191 1.85072C6.7433 1.79365 6.82722 1.70973 6.9212 1.64596C7.33073 1.36063 7.84095 1.57546 7.90808 2.0689C7.93829 2.29716 7.84766 2.48849 7.66304 2.62948C7.36094 2.85438 7.05883 3.07928 6.75001 3.29747C6.65602 3.3646 6.61574 3.43509 6.61574 3.55594C6.62245 4.30449 6.6191 5.0564 6.6191 5.80495C6.6191 5.93922 6.6191 5.93922 6.73323 5.87544C7.3945 5.49613 8.05242 5.11346 8.7137 4.73751C8.80097 4.68715 8.83118 4.62673 8.84125 4.52939C8.87818 4.14336 8.91846 3.75398 8.96881 3.37132C9.0158 3.01215 9.31455 2.7906 9.67708 2.83424C9.99261 2.87116 10.2209 3.17663 10.1873 3.5123C10.1806 3.59286 10.1705 3.67006 10.1638 3.75063C10.1604 3.79091 10.137 3.84126 10.1772 3.86811C10.2142 3.89161 10.2477 3.85133 10.2779 3.83119C10.4156 3.75063 10.5532 3.67678 10.7244 3.68349C10.9795 3.69356 11.2078 3.85133 11.2883 4.08966C11.3722 4.3347 11.2917 4.61666 11.0903 4.76772C11.0198 4.82142 10.9426 4.8617 10.8687 4.9087C10.8419 4.92548 10.7982 4.9322 10.8049 4.97583C10.8083 5.0094 10.8452 5.01276 10.8721 5.02618C10.956 5.06311 11.0399 5.10003 11.1238 5.14031C11.4561 5.30144 11.5837 5.63711 11.4427 5.95936C11.3017 6.27153 10.9627 6.40244 10.6304 6.26146C10.2746 6.11041 9.92212 5.956 9.57302 5.79488C9.47903 5.75124 9.40519 5.75795 9.31791 5.8083C8.66671 6.18761 8.01214 6.56357 7.36094 6.93952C7.25688 6.99994 7.25688 7.01673 7.36094 7.07379C8.02221 7.4531 8.68349 7.82906 9.34141 8.21172C9.41861 8.25536 9.47903 8.24865 9.55288 8.21508C9.88856 8.06403 10.2276 7.91969 10.5633 7.76528C10.7814 7.66793 10.9929 7.65786 11.201 7.78206C11.4058 7.9029 11.5099 8.09088 11.5031 8.32585C11.4964 8.57761 11.3722 8.76223 11.144 8.873C11.0533 8.91664 10.9594 8.95356 10.8687 8.99384C10.7848 9.02741 10.7982 9.06098 10.8654 9.0979C10.9157 9.12811 10.9661 9.15497 11.0164 9.18853C11.3152 9.37315 11.4092 9.73568 11.238 10.0311C11.0668 10.3265 10.6942 10.4205 10.3854 10.2493C10.3585 10.2358 10.335 10.2157 10.3081 10.2056C10.2645 10.1888 10.2242 10.1251 10.1772 10.1586C10.137 10.1888 10.1638 10.2526 10.1672 10.303C10.1705 10.3936 10.1873 10.4876 10.1907 10.5782C10.1907 10.8971 9.95233 11.1656 9.65358 11.1858C9.30113 11.2093 9.0158 10.9945 8.97552 10.6588C8.92517 10.2694 8.88489 9.87666 8.84797 9.48728C8.8379 9.38994 8.80097 9.32616 8.71706 9.27916C8.05914 8.90321 7.40457 8.5239 6.74665 8.14459C6.62917 8.07745 6.62581 8.07745 6.62581 8.20837C6.62581 8.9737 6.62581 9.74239 6.62581 10.5077C6.62581 10.5883 6.65267 10.6386 6.71644 10.6856C7.02862 10.9105 7.3408 11.1354 7.64961 11.3637C7.8678 11.5248 7.96179 11.743 7.90473 12.0115C7.85102 12.2599 7.65633 12.4412 7.3945 12.4848C7.21995 12.5151 7.06554 12.458 6.9212 12.3573C6.8205 12.2801 6.72987 12.2163 6.61574 12.1357Z" fill="white"/>
<path d="M10.2375 6.96299C10.2408 7.0939 10.1871 7.16439 10.1032 7.20131C9.79437 7.33894 9.4822 7.47321 9.17338 7.61084C9.11631 7.63769 9.06932 7.62426 9.01897 7.59405C8.71015 7.41615 8.40469 7.23824 8.09587 7.06033C8.01195 7.01334 8.0153 6.97977 8.09587 6.93613C8.40469 6.76158 8.7135 6.58368 9.01897 6.40241C9.07939 6.36549 9.1331 6.36884 9.19687 6.3957C9.49227 6.52661 9.7843 6.65417 10.0797 6.78508C10.1703 6.82872 10.2341 6.88914 10.2375 6.96299Z" fill="white"/>
<path d="M1.77197 7C1.77197 6.8993 1.82904 6.83552 1.91296 6.79524C2.21842 6.65762 2.52388 6.5267 2.82934 6.38908C2.88305 6.36558 2.9334 6.36894 2.98375 6.39915C3.29593 6.58041 3.60475 6.76167 3.91692 6.93958C3.99413 6.98322 3.99077 7.01343 3.91692 7.05707C3.60475 7.23497 3.29257 7.41624 2.98375 7.5975C2.92669 7.63107 2.87634 7.62771 2.81927 7.60086C2.52052 7.46659 2.22177 7.33903 1.92303 7.20476C1.83239 7.16784 1.77197 7.10742 1.77197 7Z" fill="white"/>
<path d="M5.00794 9.38979C5.00794 9.56099 5.00458 9.73218 5.00794 9.90337C5.00794 9.97722 4.98444 10.0276 4.92402 10.0712C4.66891 10.2558 4.41716 10.4405 4.1654 10.6251C4.07813 10.6888 3.99085 10.7291 3.88679 10.6687C3.78609 10.6116 3.77266 10.521 3.78609 10.4203C3.81966 10.088 3.85658 9.75568 3.89015 9.42336C3.89686 9.37301 3.92707 9.3428 3.97071 9.3193C4.28289 9.1414 4.59171 8.96013 4.90388 8.77887C4.99451 8.72516 5.0113 8.76544 5.00794 8.84936C5.00794 9.03062 5.00794 9.20853 5.00794 9.38979Z" fill="white"/>
<path d="M7.00195 4.61669C7.00195 4.4455 7.00531 4.27431 7.00195 4.10311C7.00195 4.02926 7.02209 3.97891 7.08587 3.93528C7.34098 3.75066 7.59274 3.56603 7.84449 3.37806C7.92841 3.31428 8.01569 3.274 8.1231 3.33106C8.2238 3.38477 8.24059 3.47876 8.23052 3.57946C8.19695 3.91178 8.16003 4.24409 8.12646 4.57641C8.11974 4.63348 8.08618 4.66369 8.03918 4.69054C7.73036 4.86845 7.4249 5.04635 7.11608 5.22426C7.03552 5.27125 7.00531 5.25447 7.00531 5.16048C7.00531 4.97586 7.00195 4.7946 7.00195 4.61669Z" fill="white"/>
<path d="M5.00766 4.61994C5.00766 4.8012 5.0043 4.97911 5.00766 5.16037C5.00766 5.24429 4.98081 5.26779 4.9036 5.22415C4.59143 5.04289 4.28261 4.86498 3.96707 4.68707C3.91001 4.65351 3.88987 4.60651 3.88316 4.54273C3.85295 4.2507 3.81938 3.96202 3.78917 3.66998C3.78581 3.6297 3.78581 3.58607 3.78245 3.54578C3.7791 3.44844 3.81266 3.37459 3.89994 3.3276C3.98386 3.28396 4.06106 3.30746 4.13491 3.35781C4.35646 3.52229 4.57464 3.69348 4.80626 3.84453C4.96067 3.94524 5.03116 4.05936 5.00766 4.24399C4.99423 4.36818 5.00766 4.49574 5.00766 4.61994Z" fill="white"/>
<path d="M7.00195 9.37639C7.00195 9.20184 7.00531 9.02394 7.00195 8.84939C7.00195 8.76211 7.02209 8.7319 7.10937 8.77889C7.41819 8.9568 7.72701 9.13471 8.03583 9.30926C8.09625 9.34283 8.11974 9.39318 8.12646 9.46367C8.15667 9.74899 8.19024 10.0377 8.22045 10.323C8.22716 10.3767 8.23052 10.4304 8.22716 10.4841C8.21709 10.6587 8.04925 10.756 7.90491 10.6553C7.61624 10.4539 7.33763 10.2424 7.0523 10.0343C7.00531 10.0007 7.00531 9.95039 7.00531 9.90004C7.00195 9.72549 7.00195 9.55094 7.00195 9.37639Z" fill="white"/>
</svg>
