<svg width="24" height="25" viewBox="0 0 24 25" fill="none" xmlns="http://www.w3.org/2000/svg">
<path d="M12 12.9321H11.25C11.25 13.255 11.4566 13.5416 11.7628 13.6436L12 12.9321ZM12.75 7.93213C12.75 7.51792 12.4142 7.18213 12 7.18213C11.5858 7.18213 11.25 7.51792 11.25 7.93213H12.75ZM14.7628 14.6436C15.1558 14.7746 15.5805 14.5623 15.7115 14.1693C15.8425 13.7763 15.6301 13.3516 15.2372 13.2206L14.7628 14.6436ZM12.75 12.9321V7.93213H11.25V12.9321H12.75ZM11.7628 13.6436L14.7628 14.6436L15.2372 13.2206L12.2372 12.2206L11.7628 13.6436ZM21.25 12.9321C21.25 18.0408 17.1086 22.1821 12 22.1821V23.6821C17.9371 23.6821 22.75 18.8692 22.75 12.9321H21.25ZM12 22.1821C6.89137 22.1821 2.75 18.0408 2.75 12.9321H1.25C1.25 18.8692 6.06294 23.6821 12 23.6821V22.1821ZM2.75 12.9321C2.75 7.82349 6.89137 3.68213 12 3.68213V2.18213C6.06294 2.18213 1.25 6.99507 1.25 12.9321H2.75ZM12 3.68213C17.1086 3.68213 21.25 7.82349 21.25 12.9321H22.75C22.75 6.99507 17.9371 2.18213 12 2.18213V3.68213Z" fill="white" fill-opacity="0.81"/>
</svg>
