<svg width="24" height="25" viewBox="0 0 24 25" fill="none" xmlns="http://www.w3.org/2000/svg">
<path d="M8 10.9321H16M8 14.9321H16M8 18.9321H12M8 4.93213C8 6.0367 8.89543 6.93213 10 6.93213H14C15.1046 6.93213 16 6.0367 16 4.93213M8 4.93213C8 3.82756 8.89543 2.93213 10 2.93213H14C15.1046 2.93213 16 3.82756 16 4.93213M8 4.93213H7C4.79086 4.93213 3 6.72299 3 8.93213V18.9321C3 21.1413 4.79086 22.9321 7 22.9321H17C19.2091 22.9321 21 21.1413 21 18.9321V8.93213C21 6.72299 19.2091 4.93213 17 4.93213H16" stroke="white" stroke-opacity="0.81" stroke-width="1.5" stroke-linecap="round"/>
</svg>
