<svg width="24" height="25" viewBox="0 0 24 25" fill="none" xmlns="http://www.w3.org/2000/svg">
<path d="M15.25 7.93213C15.25 9.72705 13.7949 11.1821 12 11.1821V12.6821C14.6234 12.6821 16.75 10.5555 16.75 7.93213H15.25ZM12 11.1821C10.2051 11.1821 8.75 9.72705 8.75 7.93213H7.25C7.25 10.5555 9.37665 12.6821 12 12.6821V11.1821ZM8.75 7.93213C8.75 6.1372 10.2051 4.68213 12 4.68213V3.18213C9.37665 3.18213 7.25 5.30878 7.25 7.93213H8.75ZM12 4.68213C13.7949 4.68213 15.25 6.1372 15.25 7.93213H16.75C16.75 5.30878 14.6234 3.18213 12 3.18213V4.68213ZM18.25 18.4321C18.25 18.9615 17.8014 19.6427 16.6143 20.2362C15.4722 20.8073 13.8418 21.1821 12 21.1821V22.6821C14.0242 22.6821 15.8938 22.2735 17.2852 21.5778C18.6316 20.9046 19.75 19.8357 19.75 18.4321H18.25ZM12 21.1821C10.1582 21.1821 8.52782 20.8073 7.38566 20.2362C6.19864 19.6427 5.75 18.9615 5.75 18.4321H4.25C4.25 19.8357 5.36836 20.9046 6.71484 21.5778C8.10618 22.2735 9.97582 22.6821 12 22.6821V21.1821ZM5.75 18.4321C5.75 17.9028 6.19864 17.2216 7.38566 16.6281C8.52782 16.057 10.1582 15.6821 12 15.6821V14.1821C9.97582 14.1821 8.10618 14.5908 6.71484 15.2864C5.36836 15.9597 4.25 17.0285 4.25 18.4321H5.75ZM12 15.6821C13.8418 15.6821 15.4722 16.057 16.6143 16.6281C17.8014 17.2216 18.25 17.9028 18.25 18.4321H19.75C19.75 17.0285 18.6316 15.9597 17.2852 15.2864C15.8938 14.5908 14.0242 14.1821 12 14.1821V15.6821Z" fill="white" fill-opacity="0.81"/>
</svg>
