<svg width="13" height="14" viewBox="0 0 13 14" fill="none" xmlns="http://www.w3.org/2000/svg">
<path d="M5.9626 1.983C6.13976 1.45 6.86056 1.45 7.03772 1.983L7.9758 4.80524C8.05396 5.04037 8.26378 5.1998 8.50177 5.20487L11.3583 5.26574C11.8978 5.27724 12.1205 5.99413 11.6905 6.33504L9.41376 8.14016C9.22408 8.29054 9.14393 8.5485 9.21286 8.78676L10.0402 11.6466C10.1965 12.1867 9.61333 12.6298 9.17043 12.3075L6.82523 10.6009C6.62984 10.4587 6.37048 10.4587 6.1751 10.6009L3.8299 12.3075C3.38699 12.6298 2.80386 12.1867 2.96011 11.6466L3.78746 8.78676C3.85639 8.5485 3.77625 8.29055 3.58656 8.14016L1.30979 6.33504C0.879812 5.99413 1.10255 5.27724 1.64202 5.26574L4.49856 5.20487C4.73654 5.1998 4.94637 5.04037 5.02452 4.80524L5.9626 1.983Z" fill="white"/>
</svg>
