<svg width="12" height="12" viewBox="0 0 12 12" fill="none" xmlns="http://www.w3.org/2000/svg">
<path fill-rule="evenodd" clip-rule="evenodd" d="M3.81418 1.41663H8.18552C9.01847 1.41663 9.76751 1.98714 10.0769 2.85719L10.4243 3.83427C10.5294 4.13005 10.6021 4.44655 10.5254 4.75094C10.3438 5.47185 9.7544 5.99996 9.0554 5.99996C8.21163 5.99996 7.52763 5.23045 7.52763 4.28121C7.52763 5.23045 6.84362 5.99996 5.99985 5.99996C5.15608 5.99996 4.47207 5.23045 4.47207 4.28121C4.47207 5.23045 3.78806 5.99996 2.94429 5.99996C2.24529 5.99996 1.65593 5.47185 1.47427 4.75094C1.39757 4.44655 1.47026 4.13005 1.57543 3.83427L1.92283 2.85719C2.23219 1.98714 2.98122 1.41663 3.81418 1.41663ZM2.33342 6.59601V8.74991C2.33342 9.76244 3.15423 10.5832 4.16675 10.5832H7.83342C8.84594 10.5832 9.66675 9.76244 9.66675 8.74991V6.59603C9.47479 6.65526 9.27021 6.68742 9.05567 6.68742C8.44282 6.68742 7.91465 6.42953 7.5279 6.02558C7.14115 6.42953 6.61297 6.68742 6.00012 6.68742C5.38727 6.68742 4.85909 6.42953 4.47234 6.02558C4.08559 6.42953 3.55741 6.68742 2.94457 6.68742C2.73001 6.68742 2.5254 6.65525 2.33342 6.59601ZM7.67447 8.12271C7.76771 8.28808 7.70923 8.49773 7.54386 8.59097C6.9869 8.90498 6.50718 9.09263 6.00134 9.09361C5.49487 9.09459 5.0142 8.9084 4.45506 8.59032C4.29005 8.49644 4.23238 8.28657 4.32625 8.12156C4.42012 7.95654 4.62999 7.89887 4.79501 7.99274C5.31576 8.28899 5.67101 8.40675 6.00001 8.40611C6.32964 8.40548 6.68497 8.28597 7.20621 7.99209C7.37159 7.89885 7.58123 7.95733 7.67447 8.12271Z" fill="white"/>
</svg>
